<?xml version="1.0" standalone="no"?>
<!DOCTYPE svg PUBLIC "-//W3C//DTD SVG 20010904//EN"
 "http://www.w3.org/TR/2001/REC-SVG-20010904/DTD/svg10.dtd">
<svg version="1.0" xmlns="http://www.w3.org/2000/svg"
 width="1440.000000pt" height="1440.000000pt" viewBox="0 0 1440.000000 1440.000000"
 preserveAspectRatio="xMidYMid meet">
<metadata>
Created by potrace 1.14, written by Peter Selinger 2001-2017
</metadata>
<g transform="translate(0.000000,1440.000000) scale(0.100000,-0.100000)"
fill="#000000" stroke="none">
<path d="M0 10679 c0 -625 1 -661 17 -654 26 9 2396 1296 2407 1306 6 5 -535
9 -1207 9 l-1217 0 0 -661z"/>
<path d="M2800 8093 c1 -3195 5 -3653 34 -3838 73 -467 284 -634 871 -687
l135 -12 0 -188 0 -188 -1820 0 -1820 0 0 190 0 190 118 0 c145 0 366 23 478
50 368 87 527 281 586 715 11 82 13 557 13 2600 0 2408 -1 2504 -19 2600 -32
170 -80 273 -154 332 -63 50 -110 63 -231 63 -171 0 -263 -30 -609 -196 -85
-41 -158 -74 -162 -74 -4 0 -54 81 -110 180 -56 99 -104 180 -106 180 -2 0 -4
-1566 -4 -3480 l0 -3480 2823 1 c1552 1 2782 5 2732 10 -243 21 -496 94 -715
205 -278 140 -443 314 -504 527 -74 258 84 515 362 593 52 14 86 16 190 11
147 -8 221 -24 346 -74 130 -51 268 -129 449 -251 87 -59 193 -127 235 -152
161 -96 315 -140 487 -140 186 0 316 40 465 141 223 150 378 388 451 689 27
111 31 147 36 330 10 379 -51 686 -197 985 -243 498 -694 843 -1366 1044 -152
45 -353 92 -506 118 l-108 17 0 198 c0 183 1 198 18 198 55 0 437 110 562 162
268 111 573 323 759 528 252 276 382 525 442 840 19 101 21 136 16 280 -6 142
-11 180 -37 273 -98 349 -327 576 -680 678 -114 32 -117 33 -330 33 -200 0
-222 -2 -320 -26 -193 -49 -323 -116 -457 -235 -130 -116 -250 -304 -317 -502
l-38 -111 -229 0 c-126 0 -229 3 -229 8 0 17 71 264 103 357 63 185 160 399
245 545 164 279 401 537 630 684 342 219 700 316 1168 316 309 0 538 -42 789
-146 418 -172 729 -496 868 -904 70 -205 82 -285 81 -555 0 -227 -1 -246 -28
-360 -50 -214 -126 -400 -236 -575 -192 -308 -514 -612 -924 -874 -65 -42
-114 -76 -108 -76 23 0 252 -95 397 -164 281 -135 489 -279 676 -465 277 -278
428 -571 500 -976 21 -114 24 -162 24 -395 0 -210 -4 -289 -18 -380 -112 -696
-443 -1330 -911 -1743 -277 -245 -652 -447 -1036 -559 -151 -43 -371 -87 -500
-98 -47 -4 1180 -7 2725 -7 1546 0 2788 2 2760 4 -121 7 -362 48 -500 85
-1025 273 -1735 1117 -1965 2339 -95 501 -107 1105 -35 1624 192 1361 934
2539 2114 3354 780 538 1730 818 2871 848 l250 6 0 -200 0 -200 -142 -12
c-852 -74 -1670 -406 -2266 -920 -153 -132 -399 -380 -509 -513 -250 -301
-467 -698 -609 -1113 -47 -136 -144 -491 -144 -525 0 -5 67 23 149 64 357 179
613 265 966 323 159 26 605 26 755 0 326 -58 597 -159 850 -320 563 -358 950
-975 1044 -1667 9 -63 17 -126 20 -140 2 -14 4 1162 5 2613 l1 2637 -5800 0
-5800 0 0 -3247z"/>
<path d="M11490 7593 c-316 -36 -614 -149 -900 -342 l-85 -58 -13 -154 c-42
-526 -26 -1263 39 -1748 154 -1150 569 -1710 1269 -1711 291 0 510 81 707 264
224 208 376 550 445 1002 20 134 23 186 23 504 0 280 -4 386 -18 500 -133
1082 -463 1621 -1062 1735 -75 14 -310 19 -405 8z"/>
<path d="M14390 5603 c0 -78 -47 -348 -83 -483 -201 -744 -639 -1364 -1209
-1713 -318 -194 -638 -299 -1073 -350 -16 -2 511 -5 1173 -6 l1202 -1 0 1300
c0 715 -2 1300 -5 1300 -3 0 -5 -21 -5 -47z"/>
</g>
</svg>
